<svg version="1.1" id="logo" xmlns="http://www.w3.org/2000/svg" x="0px" y="0px"
     viewBox="0 0 100 25" style="enable-background:new 0 0 100 25;"
     xml:space="preserve">
    <rect id="wrapper" class="st0"
          width="100" height="25"/>
    <g id="fm">
        <g>
            <polygon points="87,18.6 87,20.6 87,21.2 87,21.3 88.8,18.6 89.4,18.6 89.4,21.8 88.9,21.8 88.9,19.8 89,19.5 89,19.1 87.2,21.8
                86.5,21.8 86.5,18.6 		"/>
            <path d="M83.7,21.3l0.1-0.3l0.1-0.3l0.9-2.1h0.6v3.2H85v-2.7l-0.1,0.2l-0.2,0.5l-0.9,2h-0.4l-0.9-2c-0.1-0.2-0.2-0.4-0.2-0.6v2.7
                H82v-3.2h0.5l0.9,2C83.5,20.8,83.6,21.1,83.7,21.3z"/>
            <path d="M80.5,21.8l-0.1-0.5l0,0c-0.1,0.2-0.3,0.3-0.5,0.4c-0.2,0.1-0.4,0.1-0.6,0.1c-0.3,0-0.6-0.1-0.8-0.2
                c-0.2-0.2-0.3-0.4-0.3-0.7c0-0.6,0.5-1,1.6-1h0.6v-0.2c0-0.2,0-0.4-0.2-0.6c-0.2-0.1-0.3-0.2-0.6-0.2c-0.3,0-0.7,0.1-1,0.3
                l-0.1-0.4c0.2-0.1,0.4-0.2,0.5-0.2c0.2-0.1,0.4-0.1,0.6-0.1c0.3,0,0.6,0.1,0.9,0.3c0.2,0.2,0.3,0.5,0.3,0.8v2.2H80.5z M79.4,21.5
                c0.3,0,0.5-0.1,0.7-0.3c0.2-0.2,0.3-0.4,0.3-0.7v-0.3h-0.5c-0.3,0-0.6,0-0.9,0.2c-0.3,0.2-0.4,0.5-0.2,0.8c0,0,0,0.1,0.1,0.1
                C79,21.4,79.2,21.5,79.4,21.5L79.4,21.5z"/>
            <path d="M76.8,21.8c-0.4,0-0.8-0.1-1.1-0.4c-0.3-0.3-0.4-0.8-0.4-1.2c0-0.5,0.1-0.9,0.4-1.2c0.3-0.3,0.7-0.5,1.2-0.4
                c0.2,0,0.3,0,0.5,0.1c0.1,0,0.3,0.1,0.4,0.1l-0.2,0.4c-0.1,0-0.2-0.1-0.4-0.1c-0.1,0-0.2,0-0.3,0c-0.7,0-1,0.4-1,1.3
                c0,0.3,0.1,0.6,0.3,0.9c0.2,0.2,0.5,0.3,0.7,0.3c0.3,0,0.6-0.1,0.9-0.2v0.4C77.4,21.8,77.1,21.9,76.8,21.8z"/>
            <path d="M72,18.6v1.4h1.9v-1.4h0.5v3.3h-0.5v-1.5H72v1.5h-0.5v-3.3H72z"/>
            <path d="M70,21.8l-0.1-0.5l0,0c-0.1,0.2-0.3,0.3-0.5,0.4c-0.2,0.1-0.4,0.1-0.6,0.1c-0.3,0-0.6-0.1-0.8-0.2
                c-0.2-0.2-0.3-0.4-0.3-0.7c0-0.7,0.5-1,1.6-1h0.6v-0.2c0-0.2,0-0.4-0.2-0.6c-0.1-0.1-0.3-0.2-0.5-0.2c-0.3,0-0.7,0.1-0.9,0.3
                l-0.2-0.4c0.2-0.1,0.4-0.2,0.6-0.2c0.2-0.1,0.4-0.1,0.6-0.1c0.3,0,0.6,0.1,0.9,0.3c0.2,0.2,0.3,0.5,0.3,0.8v2.2H70z M68.9,21.5
                c0.3,0,0.5-0.1,0.8-0.3c0.2-0.2,0.3-0.4,0.3-0.7v-0.3h-0.5c-0.3,0-0.6,0-0.9,0.2c-0.2,0.1-0.3,0.3-0.3,0.5c0,0.2,0.1,0.3,0.2,0.4
                C68.6,21.4,68.7,21.5,68.9,21.5L68.9,21.5z"/>
            <path d="M64.5,18.6v1.4h1.9v-1.4h0.5v3.3h-0.5v-1.5h-1.9v1.5H64v-3.3H64.5z"/>
            <path d="M60.5,18.6v2v0.5v0.2l1.8-2.7h0.6v3.3h-0.4v-2.4v-0.4l-1.8,2.8H60v-3.3H60.5z"/>
            <path d="M59.1,20.2c0,0.4-0.1,0.8-0.4,1.2c-0.3,0.3-0.8,0.5-1.2,0.5v1.4H57v-1.4c-0.4,0-0.9-0.2-1.2-0.5c-0.3-0.3-0.5-0.7-0.4-1.1
                c0-0.4,0.1-0.9,0.4-1.2c0.3-0.3,0.8-0.5,1.2-0.5v-1.3h0.5v1.3c0.4,0,0.9,0.2,1.2,0.5C59,19.3,59.2,19.8,59.1,20.2z M55.9,20.2
                c0,0.3,0.1,0.6,0.3,0.9c0.2,0.2,0.5,0.4,0.8,0.4V19c-0.3,0-0.6,0.1-0.8,0.4C56,19.6,55.9,19.9,55.9,20.2z M58.6,20.2
                c0.1-0.6-0.4-1.2-1-1.2c0,0-0.1,0-0.1,0v2.5c0.3,0,0.6-0.1,0.8-0.4C58.5,20.8,58.6,20.5,58.6,20.2z"/>
            <path d="M51.8,21.8c-0.4,0-0.9-0.1-1.2-0.4c-0.3-0.3-0.5-0.8-0.4-1.2c0-0.4,0.1-0.9,0.4-1.2c0.3-0.3,0.7-0.5,1.1-0.5
                c0.4,0,0.7,0.1,1,0.4c0.3,0.3,0.4,0.7,0.4,1v0.3h-2.3c0,0.3,0.1,0.6,0.3,0.9c0.2,0.2,0.5,0.3,0.8,0.3c0.4,0,0.7-0.1,1.1-0.2v0.4
                c-0.2,0.1-0.3,0.1-0.5,0.2C52.2,21.8,52,21.8,51.8,21.8z M51.7,18.9c-0.2,0-0.5,0.1-0.7,0.3c-0.2,0.2-0.3,0.4-0.3,0.7h1.8
                c0-0.3-0.1-0.5-0.2-0.7C52.1,19,51.9,18.9,51.7,18.9L51.7,18.9z"/>
            <path d="M46.9,18.6v2v0.5v0.2l1.8-2.7h0.6v3.3h-0.5v-2.8l-1.8,2.8h-0.6v-3.3H46.9z"/>
            <path d="M43,18.6v1.4h1.9v-1.4h0.5v3.3h-0.5v-1.5H43v1.5h-0.5v-3.3H43z"/>
            <path d="M40.4,21.8c-0.4,0-0.9-0.1-1.2-0.4c-0.3-0.3-0.5-0.8-0.4-1.2c0-0.4,0.1-0.9,0.4-1.2c0.3-0.3,0.7-0.5,1.1-0.5
                c0.4,0,0.7,0.1,1,0.4c0.2,0.3,0.4,0.7,0.4,1v0.3h-2.3c0,0.3,0.1,0.6,0.3,0.9c0.2,0.2,0.5,0.3,0.8,0.3c0.4,0,0.7-0.1,1.1-0.2v0.4
                c-0.2,0.1-0.3,0.1-0.5,0.2C40.7,21.8,40.6,21.8,40.4,21.8z M40.2,18.9c-0.2,0-0.5,0.1-0.6,0.3c-0.2,0.2-0.3,0.4-0.3,0.7H41
                c0-0.3-0.1-0.5-0.2-0.7C40.7,19,40.4,18.9,40.2,18.9L40.2,18.9z"/>
            <path d="M37.9,21.8h-0.5V19h-1c0,0.6-0.1,1.1-0.2,1.7c-0.1,0.3-0.2,0.6-0.4,0.9c-0.1,0.2-0.4,0.3-0.6,0.3c-0.1,0-0.2,0-0.3,0v-0.4
                H35c0.2,0,0.4-0.2,0.6-0.7c0.2-0.7,0.3-1.4,0.3-2.2h2L37.9,21.8z"/>
            <path d="M34.5,19.4c0,0.2-0.1,0.4-0.2,0.5c-0.2,0.1-0.3,0.2-0.5,0.2l0,0c0.2,0,0.4,0.1,0.6,0.2c0.1,0.1,0.2,0.3,0.2,0.5
                c0,0.3-0.1,0.5-0.4,0.7c-0.3,0.2-0.6,0.3-1,0.3h-1.5v-3.2h1.5C34.1,18.6,34.5,18.8,34.5,19.4z M34,19.4c0-0.1-0.1-0.3-0.2-0.3
                C33.6,19,33.4,19,33.2,19h-1v0.9h0.9c0.2,0,0.5,0,0.7-0.1C33.9,19.8,34,19.6,34,19.4L34,19.4z M34.1,20.8c0-0.2-0.1-0.3-0.2-0.4
                c-0.2-0.1-0.4-0.1-0.7-0.1h-0.9v1.1h0.9C33.8,21.4,34.1,21.2,34.1,20.8L34.1,20.8z"/>
            <path d="M30.4,21.8l-0.1-0.5l0,0c-0.1,0.2-0.3,0.3-0.5,0.4c-0.2,0.1-0.4,0.1-0.6,0.1c-0.3,0-0.6-0.1-0.8-0.2
                c-0.2-0.2-0.3-0.4-0.3-0.7c0-0.7,0.5-1,1.6-1h0.6v-0.2c0-0.2,0-0.4-0.2-0.6c-0.1-0.2-0.4-0.3-0.6-0.3c-0.3,0-0.7,0.1-1,0.3
                l-0.1-0.4c0.2-0.1,0.4-0.2,0.5-0.2c0.2-0.1,0.4-0.1,0.6-0.1c0.3,0,0.7,0.1,0.9,0.3c0.2,0.2,0.3,0.5,0.3,0.8v2.2H30.4z M29.2,21.5
                c0.3,0,0.5-0.1,0.8-0.3c0.2-0.2,0.3-0.4,0.3-0.7v-0.3h-0.5c-0.3,0-0.6,0-0.9,0.2c-0.3,0.2-0.4,0.5-0.2,0.8c0,0,0,0.1,0.1,0.1
                C28.9,21.4,29.1,21.5,29.2,21.5L29.2,21.5z"/>
            <path d="M26,21.8c-0.2,0-0.4,0-0.6-0.1c-0.2-0.1-0.3-0.2-0.5-0.4l0,0c0,0.2,0,0.4,0,0.5v1.3h-0.5v-4.6h0.4L25,19l0,0
                c0.1-0.2,0.3-0.3,0.5-0.4c0.2-0.1,0.4-0.1,0.6-0.1c0.4,0,0.7,0.1,1,0.4c0.3,0.4,0.4,0.8,0.4,1.2c0,0.4-0.1,0.9-0.4,1.2
                C26.8,21.7,26.4,21.9,26,21.8z M26,18.9c-0.3,0-0.6,0.1-0.8,0.3C25,19.5,25,19.8,25,20.1v0.1c0,0.3,0,0.7,0.2,1
                c0.2,0.2,0.5,0.3,0.8,0.3c0.3,0,0.5-0.1,0.7-0.3c0.2-0.3,0.3-0.6,0.3-0.9c0-0.3-0.1-0.6-0.3-0.9C26.5,19.1,26.2,18.9,26,18.9
                L26,18.9z"/>
            <path d="M21.1,21.8h-0.5v-3.3h2.8v3.3h-0.5V19h-1.8V21.8z"/>
            <path d="M16.9,18.6h0.5l0.7,1.8c0.1,0.3,0.2,0.6,0.3,0.9l0,0c0-0.1,0.1-0.3,0.2-0.5s0.4-1,0.8-2.2H20l-1.4,3.7
                c-0.1,0.3-0.3,0.6-0.5,0.8c-0.2,0.2-0.5,0.2-0.7,0.2c-0.2,0-0.3,0-0.5,0v-0.4c0.1,0,0.3,0,0.4,0c0.3,0,0.7-0.2,0.8-0.6l0.2-0.5
                L16.9,18.6z"/>
        </g>
    </g>
    <g id="uhgalter">
        <g>
            <path d="M36.5,2.8l-2.7,9.5c-0.3,1.1-0.6,2.1-1.1,3.1c-0.3,0.6-0.7,1-1.3,1.3c-0.8,0.3-1.7,0.4-2.6,0.4h-2.2l0.3-1.8h0.2
                c0.3,0,0.6,0,0.9-0.1c0.1-0.1,0.2-0.2,0.2-0.3v-1.2l0-10.8h3.2l-0.4,8.9l2.1-8.9H36.5z"/>
            <path d="M44.8,2.8l-2.4,6.3l0.6,7.9h-3.4c-0.2-1.7-0.2-3.5-0.2-5.2c-0.3,0.9-0.5,1.9-0.9,2.9l-0.8,2.3H34l2.7-7.9l-0.3-6.3h3.6
                c0,0.4,0,1,0,2c0,0.7,0,1.3,0,1.9l1.6-3.9H44.8z"/>
            <path d="M51.9,5.7h-2.7l-2,11.4h-3.7l2.5-14.3h6.4L51.9,5.7z"/>
            <path d="M59.8,2.8l-0.4,14.2h-3.8l0.3-2.6h-1.3l-0.7,2.6H50l4.4-14.2H59.8z M56.2,12c0.1-1.6,0.3-3.6,0.5-6
                c-0.9,2.7-1.4,4.7-1.8,6H56.2z"/>
            <path d="M69,17.1h-3.7l2-11.4h-1.1l-1.4,8.1c-0.1,0.8-0.4,1.6-0.8,2.3c-0.3,0.5-0.8,0.8-1.4,0.9c-0.9,0.1-1.8,0.2-2.7,0.2h-0.6
                l0.4-2.4c0.3,0,0.7,0,1-0.2c0.2-0.1,0.3-0.5,0.5-1.1L63,2.8h8.5L69,17.1z"/>
            <path d="M80.5,2.8L80,5.7h-2.2l-2,11.4h-3.7l2-11.4h-2.2l0.5-2.8H80.5z"/>
            <path d="M81.3,2.8h6.2L87,5.7h-2.5L84,8.4h2.3l-0.5,2.8h-2.3L83,14.3h2.7l-0.5,2.9h-6.4L81.3,2.8z"/>
            <path d="M88.8,2.8h3.7c0.8,0,1.6,0.1,2.3,0.3c0.4,0.1,0.8,0.4,1.1,0.7c0.2,0.3,0.4,0.7,0.4,1.1c0,0.7-0.1,1.3-0.2,2l-0.2,1.2
                c-0.1,0.7-0.3,1.4-0.6,2c-0.3,0.5-0.7,0.8-1.2,1c-0.6,0.2-1.3,0.3-2,0.3h-1l-1,5.7h-3.7L88.8,2.8z M92.1,5.3l-0.6,3.7h0.3
                c0.3,0,0.5-0.1,0.8-0.3c0.2-0.3,0.3-0.7,0.4-1L93,6.5c0.1-0.5,0.1-0.8-0.1-1C92.8,5.4,92.5,5.3,92.1,5.3L92.1,5.3z"/>
        </g>
    </g>
    <path id="b" d="M26,13.8c-0.1,0.8-0.4,1.6-0.8,2.3c-0.3,0.5-0.8,0.8-1.4,0.9c-0.9,0.1-1.8,0.2-2.7,0.2h-4.3l2.5-14.3h7.2l-0.4,2.5
        h-3.6l-0.4,2.4h0.6c0.9,0,1.7,0,2.6,0.2c0.5,0.1,0.9,0.4,1.1,0.9c0.2,0.7,0.3,1.4,0.1,2.2L26,13.8z M22.3,13.3l0.4-2.1
        c0.1-0.6,0.1-1,0-1.1s-0.4-0.2-1-0.2l-0.8,4.7c0.3,0,0.7,0,1-0.2C22.1,14.4,22.2,14,22.3,13.3z"/>
    <path id="r" d="M13.5,21.8H8.6l1.5-8.5c-0.4-0.1-0.9,0.1-1.3,0.3C8.5,14,8.3,14.5,8.3,15l-1.2,6.9H2.5l1-5.7C3.6,15.4,3.8,14.7,4,14
        c0.2-0.5,0.6-0.9,1-1.2c0.6-0.4,1.3-0.7,2-0.8c-1.1-0.1-1.8-0.4-2-1C4.8,10,4.8,9,5,8C5.2,7,5.5,5.9,6,5c0.4-0.6,0.9-1.2,1.5-1.5
        C8.2,3.2,9,3,9.7,2.9c0.8-0.1,2-0.1,3.6-0.1h3.5L13.5,21.8z M10.6,10.3l0.7-4.2h-0.2c-0.4,0-0.7,0.1-1,0.3C9.8,6.7,9.6,7.1,9.6,7.6
        l-0.2,1C9.3,9,9.3,9.5,9.4,9.9C9.6,10.2,10,10.3,10.6,10.3z"/>
</svg>