<svg version="1.1" id="logo" xmlns="http://www.w3.org/2000/svg" xmlns:xlink="http://www.w3.org/1999/xlink" x="0px" y="0px"
	 viewBox="0 0 100 25" style="enable-background:new 0 0 100 25;" xml:space="preserve">
<rect id="wrapper" y="0" class="st0" width="100" height="25"/>
<g id="fm">
	<polygon points="87.8,18.6 87.8,20.6 87.8,21.2 87.8,21.3 89.6,18.6 90.2,18.6 90.2,21.8 89.7,21.8 89.7,19.8 89.8,19.5 89.8,19.1 
		88,21.8 87.3,21.8 87.3,18.6 	"/>
	<path d="M84.5,21.3l0.1-0.3l0.1-0.3l0.9-2.1h0.6v3.2h-0.4v-2.7l-0.1,0.2l-0.2,0.5l-0.9,2h-0.4l-0.9-2c-0.1-0.2-0.2-0.4-0.2-0.6v2.7
		h-0.3v-3.2h0.5l0.9,2C84.3,20.8,84.4,21.1,84.5,21.3z"/>
	<path d="M81.3,21.8l-0.1-0.5l0,0c-0.1,0.2-0.3,0.3-0.5,0.4s-0.4,0.1-0.6,0.1c-0.3,0-0.6-0.1-0.8-0.2c-0.2-0.2-0.3-0.4-0.3-0.7
		c0-0.6,0.5-1,1.6-1h0.6v-0.2c0-0.2,0-0.4-0.2-0.6c-0.2-0.1-0.3-0.2-0.6-0.2c-0.3,0-0.7,0.1-1,0.3l-0.1-0.4c0.2-0.1,0.4-0.2,0.5-0.2
		c0.2-0.1,0.4-0.1,0.6-0.1c0.3,0,0.6,0.1,0.9,0.3c0.2,0.2,0.3,0.5,0.3,0.8v2.2C81.6,21.8,81.3,21.8,81.3,21.8z M80.2,21.5
		c0.3,0,0.5-0.1,0.7-0.3c0.2-0.2,0.3-0.4,0.3-0.7v-0.3h-0.5c-0.3,0-0.6,0-0.9,0.2c-0.3,0.2-0.4,0.5-0.2,0.8c0,0,0,0.1,0.1,0.1
		C79.8,21.4,80,21.5,80.2,21.5L80.2,21.5z"/>
	<path d="M77.6,21.8c-0.4,0-0.8-0.1-1.1-0.4s-0.4-0.8-0.4-1.2c0-0.5,0.1-0.9,0.4-1.2c0.3-0.3,0.7-0.5,1.2-0.4c0.2,0,0.3,0,0.5,0.1
		c0.1,0,0.3,0.1,0.4,0.1l-0.2,0.4c-0.1,0-0.2-0.1-0.4-0.1c-0.1,0-0.2,0-0.3,0c-0.7,0-1,0.4-1,1.3c0,0.3,0.1,0.6,0.3,0.9
		c0.2,0.2,0.5,0.3,0.7,0.3c0.3,0,0.6-0.1,0.9-0.2v0.4C78.2,21.8,77.9,21.9,77.6,21.8z"/>
	<path d="M72.8,18.6V20h1.9v-1.4h0.5v3.3h-0.5v-1.5h-1.9v1.5h-0.5v-3.3H72.8z"/>
	<path d="M70.8,21.8l-0.1-0.5l0,0c-0.1,0.2-0.3,0.3-0.5,0.4s-0.4,0.1-0.6,0.1c-0.3,0-0.6-0.1-0.8-0.2c-0.2-0.2-0.3-0.4-0.3-0.7
		c0-0.7,0.5-1,1.6-1h0.6v-0.2c0-0.2,0-0.4-0.2-0.6c-0.1-0.1-0.3-0.2-0.5-0.2c-0.3,0-0.7,0.1-0.9,0.3l-0.2-0.4
		c0.2-0.1,0.4-0.2,0.6-0.2c0.2-0.1,0.4-0.1,0.6-0.1c0.3,0,0.6,0.1,0.9,0.3c0.2,0.2,0.3,0.5,0.3,0.8v2.2
		C71.3,21.8,70.8,21.8,70.8,21.8z M69.7,21.5c0.3,0,0.5-0.1,0.8-0.3c0.2-0.2,0.3-0.4,0.3-0.7v-0.3h-0.5c-0.3,0-0.6,0-0.9,0.2
		c-0.2,0.1-0.3,0.3-0.3,0.5s0.1,0.3,0.2,0.4C69.4,21.4,69.5,21.5,69.7,21.5L69.7,21.5z"/>
	<path d="M65.3,18.6V20h1.9v-1.4h0.5v3.3h-0.5v-1.5h-1.9v1.5h-0.5v-3.3H65.3z"/>
	<path d="M61.2,18.6v2v0.5v0.2l1.8-2.7h0.6v3.3h-0.4v-2.4v-0.4l-1.8,2.8h-0.7v-3.3H61.2z"/>
	<path d="M59.8,20.2c0,0.4-0.1,0.8-0.4,1.2c-0.3,0.3-0.8,0.5-1.2,0.5v1.4h-0.5v-1.4c-0.4,0-0.9-0.2-1.2-0.5
		c-0.3-0.3-0.5-0.7-0.4-1.1c0-0.4,0.1-0.9,0.4-1.2c0.3-0.3,0.8-0.5,1.2-0.5v-1.3h0.5v1.3c0.4,0,0.9,0.2,1.2,0.5
		C59.7,19.3,59.9,19.8,59.8,20.2z M56.6,20.2c0,0.3,0.1,0.6,0.3,0.9c0.2,0.2,0.5,0.4,0.8,0.4V19c-0.3,0-0.6,0.1-0.8,0.4
		C56.7,19.6,56.6,19.9,56.6,20.2z M59.3,20.2c0.1-0.6-0.4-1.2-1-1.2h-0.1v2.5c0.3,0,0.6-0.1,0.8-0.4C59.2,20.8,59.3,20.5,59.3,20.2z
		"/>
	<path d="M52.5,21.8c-0.4,0-0.9-0.1-1.2-0.4s-0.5-0.8-0.4-1.2c0-0.4,0.1-0.9,0.4-1.2c0.3-0.3,0.7-0.5,1.1-0.5c0.4,0,0.7,0.1,1,0.4
		s0.4,0.7,0.4,1v0.3h-2.3c0,0.3,0.1,0.6,0.3,0.9c0.2,0.2,0.5,0.3,0.8,0.3c0.4,0,0.7-0.1,1.1-0.2v0.4c-0.2,0.1-0.3,0.1-0.5,0.2
		C52.9,21.8,52.7,21.8,52.5,21.8z M52.4,18.9c-0.2,0-0.5,0.1-0.7,0.3c-0.2,0.2-0.3,0.4-0.3,0.7h1.8c0-0.3-0.1-0.5-0.2-0.7
		C52.8,19,52.6,18.9,52.4,18.9L52.4,18.9z"/>
	<path d="M47.6,18.6v2v0.5v0.2l1.8-2.7H50v3.3h-0.5v-2.8l-1.8,2.8h-0.6v-3.3H47.6z"/>
	<path d="M43.7,18.6V20h1.9v-1.4h0.5v3.3h-0.5v-1.5h-1.9v1.5h-0.5v-3.3H43.7z"/>
	<path d="M41.1,21.8c-0.4,0-0.9-0.1-1.2-0.4s-0.5-0.8-0.4-1.2c0-0.4,0.1-0.9,0.4-1.2c0.3-0.3,0.7-0.5,1.1-0.5c0.4,0,0.7,0.1,1,0.4
		c0.2,0.3,0.4,0.7,0.4,1v0.3h-2.3c0,0.3,0.1,0.6,0.3,0.9c0.2,0.2,0.5,0.3,0.8,0.3c0.4,0,0.7-0.1,1.1-0.2v0.4
		c-0.2,0.1-0.3,0.1-0.5,0.2C41.4,21.8,41.3,21.8,41.1,21.8z M40.9,18.9c-0.2,0-0.5,0.1-0.6,0.3c-0.2,0.2-0.3,0.4-0.3,0.7h1.7
		c0-0.3-0.1-0.5-0.2-0.7C41.4,19,41.1,18.9,40.9,18.9L40.9,18.9z"/>
	<path d="M38.6,21.8h-0.5V19h-1c0,0.6-0.1,1.1-0.2,1.7c-0.1,0.3-0.2,0.6-0.4,0.9c-0.1,0.2-0.4,0.3-0.6,0.3c-0.1,0-0.2,0-0.3,0v-0.4
		h0.1c0.2,0,0.4-0.2,0.6-0.7c0.2-0.7,0.3-1.4,0.3-2.2h2L38.6,21.8z"/>
	<path d="M35.2,19.4c0,0.2-0.1,0.4-0.2,0.5c-0.2,0.1-0.3,0.2-0.5,0.2l0,0c0.2,0,0.4,0.1,0.6,0.2c0.1,0.1,0.2,0.3,0.2,0.5
		c0,0.3-0.1,0.5-0.4,0.7c-0.3,0.2-0.6,0.3-1,0.3h-1.5v-3.2h1.5C34.8,18.6,35.2,18.8,35.2,19.4z M34.7,19.4c0-0.1-0.1-0.3-0.2-0.3
		C34.3,19,34.1,19,33.9,19h-1v0.9h0.9c0.2,0,0.5,0,0.7-0.1C34.6,19.8,34.7,19.6,34.7,19.4L34.7,19.4z M34.8,20.8
		c0-0.2-0.1-0.3-0.2-0.4c-0.2-0.1-0.4-0.1-0.7-0.1H33v1.1h0.9C34.5,21.4,34.8,21.2,34.8,20.8L34.8,20.8z"/>
	<path d="M31.1,21.8L31,21.3l0,0c-0.1,0.2-0.3,0.3-0.5,0.4c-0.2,0.1-0.4,0.1-0.6,0.1c-0.3,0-0.6-0.1-0.8-0.2
		c-0.2-0.2-0.3-0.4-0.3-0.7c0-0.7,0.5-1,1.6-1H31v-0.2c0-0.2,0-0.4-0.2-0.6c-0.1-0.2-0.4-0.3-0.6-0.3c-0.3,0-0.7,0.1-1,0.3L29,18.7
		c0.2-0.1,0.4-0.2,0.5-0.2c0.2-0.1,0.4-0.1,0.6-0.1c0.3,0,0.7,0.1,0.9,0.3c0.2,0.2,0.3,0.5,0.3,0.8v2.2h-0.3V21.8z M29.9,21.5
		c0.3,0,0.5-0.1,0.8-0.3c0.2-0.2,0.3-0.4,0.3-0.7v-0.3h-0.5c-0.3,0-0.6,0-0.9,0.2c-0.3,0.2-0.4,0.5-0.2,0.8c0,0,0,0.1,0.1,0.1
		C29.6,21.4,29.8,21.5,29.9,21.5L29.9,21.5z"/>
	<path d="M26.6,21.8c-0.2,0-0.4,0-0.6-0.1c-0.2-0.1-0.3-0.2-0.5-0.4l0,0c0,0.2,0,0.4,0,0.5v1.3H25v-4.6h0.4l0.2,0.5l0,0
		c0.1-0.2,0.3-0.3,0.5-0.4c0.2-0.1,0.4-0.1,0.6-0.1c0.4,0,0.7,0.1,1,0.4c0.3,0.4,0.4,0.8,0.4,1.2c0,0.4-0.1,0.9-0.4,1.2
		C27.4,21.7,27,21.9,26.6,21.8z M26.6,18.9c-0.3,0-0.6,0.1-0.8,0.3c-0.2,0.3-0.2,0.6-0.2,0.9v0.1c0,0.3,0,0.7,0.2,1
		c0.2,0.2,0.5,0.3,0.8,0.3c0.3,0,0.5-0.1,0.7-0.3c0.2-0.3,0.3-0.6,0.3-0.9s-0.1-0.6-0.3-0.9C27.1,19.1,26.8,18.9,26.6,18.9
		L26.6,18.9z"/>
	<path d="M21.7,21.8h-0.5v-3.3H24v3.3h-0.5V19h-1.8V21.8z"/>
	<path d="M17.5,18.6H18l0.7,1.8c0.1,0.3,0.2,0.6,0.3,0.9l0,0c0-0.1,0.1-0.3,0.2-0.5s0.4-1,0.8-2.2h0.6l-1.4,3.7
		c-0.1,0.3-0.3,0.6-0.5,0.8c-0.2,0.2-0.5,0.2-0.7,0.2c-0.2,0-0.3,0-0.5,0v-0.4c0.1,0,0.3,0,0.4,0c0.3,0,0.7-0.2,0.8-0.6l0.2-0.5
		L17.5,18.6z"/>
</g>
<g id="uhgalter">
	<path d="M34.4,2.8l-1.2,9.5c-0.1,1.1-0.3,2.1-0.6,3.1c-0.2,0.6-0.5,1-1.1,1.3c-0.8,0.3-1.6,0.4-2.5,0.4h-2.2l0-1.8h0.2
		c0.3,0,0.6,0,0.9-0.1c0.1-0.1,0.2-0.2,0.2-0.3l-0.2-1.2L26.1,2.9h3.2l1,8.9L31,2.9L34.4,2.8L34.4,2.8z"/>
	<path d="M42.7,2.8l-1.4,6.3l1.9,7.9h-3.4c-0.5-1.7-0.8-3.5-1-5.2c-0.2,0.9-0.2,1.9-0.4,2.9L37.8,17h-3.7l1.4-7.9l-1.3-6.3h3.6
		c0.1,0.4,0.2,1,0.3,2c0.1,0.7,0.2,1.3,0.3,1.9l1-3.9C39.5,2.8,42.7,2.8,42.7,2.8z"/>
	<path d="M50.2,5.7h-2.7l-0.2,11.4h-3.7l0.2-14.3h6.4L50.2,5.7z"/>
	<path d="M57.7,2.8L59.5,17h-3.8l-0.1-2.6h-1.3L54,17h-3.9l2.2-14.2C52.3,2.8,57.7,2.8,57.7,2.8z M55.5,12c-0.2-1.6-0.3-3.6-0.5-6
		c-0.5,2.7-0.7,4.7-0.8,6H55.5z"/>
	<path d="M69.1,17.1h-3.7l0.2-11.4h-1.1l-0.1,8.1c0,0.8-0.1,1.6-0.4,2.3c-0.2,0.5-0.7,0.8-1.3,0.9c-0.9,0.1-1.8,0.2-2.7,0.2h-0.6
		l0-2.4c0.3,0,0.7,0,1-0.2c0.2-0.1,0.2-0.5,0.3-1.1l0.1-10.7h8.5L69.1,17.1z"/>
	<path d="M78.4,2.8l0,2.9h-2.2l-0.2,11.4h-3.7l0.2-11.4h-2.2l0.1-2.8L78.4,2.8L78.4,2.8z"/>
	<path d="M79.2,2.8h6.2l0,2.9h-2.5l-0.1,2.7H85L85,11.2h-2.3l0,3.1h2.7l0,2.9h-6.4L79.2,2.8z"/>
	<path d="M86.7,2.8h3.7c0.8,0,1.6,0.1,2.3,0.3c0.4,0.1,0.9,0.4,1.2,0.7c0.2,0.3,0.5,0.7,0.6,1.1c0.1,0.7,0.1,1.3,0.1,2l0,1.2
		c0,0.7-0.1,1.4-0.3,2c-0.2,0.5-0.6,0.8-1,1c-0.6,0.2-1.3,0.3-2,0.3h-1l-0.1,5.7h-3.7L86.7,2.8z M90.4,5.3l0,3.7h0.3
		c0.3,0,0.5-0.1,0.8-0.3c0.2-0.3,0.2-0.7,0.2-1l-0.2-1.2c0-0.5,0-0.8-0.3-1C91.1,5.4,90.8,5.3,90.4,5.3L90.4,5.3z"/>
</g>
<path id="b" class="st1" d="M26.2,13.8c0,0.8-0.1,1.6-0.4,2.3c-0.2,0.5-0.7,0.8-1.3,0.9c-0.9,0.1-1.8,0.2-2.7,0.2h-4.3l0.2-14.3H25
	l0,2.5h-3.6l0,2.4h0.6c0.9,0,1.7,0,2.6,0.2c0.5,0.1,1,0.4,1.2,0.9c0.3,0.7,0.5,1.4,0.4,2.2L26.2,13.8z M22.4,13.3l0.1-2.1
	c0-0.6-0.1-1-0.2-1.1s-0.4-0.2-1-0.2l-0.1,4.7c0.3,0,0.7,0,1-0.2C22.4,14.4,22.4,14,22.4,13.3z"/>
<path id="r" class="st2" d="M16,21.8h-4.9l0.2-8.5c-0.4-0.1-0.9,0.1-1.3,0.3C9.8,14,9.6,14.5,9.7,15l-0.1,6.9H5l0.1-5.7
	c0-0.8,0.1-1.5,0.2-2.2c0.1-0.5,0.5-0.9,0.8-1.2c0.5-0.4,1.2-0.7,1.9-0.8c-1.1-0.1-1.9-0.4-2.2-1c-0.4-1-0.5-2-0.5-3
	c0-1,0.2-2.1,0.5-3c0.3-0.6,0.7-1.2,1.3-1.5C7.8,3.2,8.5,3,9.2,2.9c0.8-0.1,2-0.1,3.6-0.1h3.5L16,21.8z M11.3,10.3l0-4.2h-0.2
	c-0.4,0-0.7,0.1-1,0.3C9.9,6.7,9.8,7.1,9.8,7.6l0,1c0,0.4,0,0.9,0.2,1.3C10.3,10.2,10.7,10.3,11.3,10.3z"/>
<g id="dots">
	<rect id="first" x="17.5" y="18.6" class="st1" width="3.7" height="3.3"/>
	<rect id="second" x="22.3" y="18.6" class="st3" width="1.8" height="3.3"/>
	<rect id="third" x="25.2" y="18.6" class="st4" width="0.9" height="3.3"/>
</g>
</svg>
