<svg version="1.1" id="logo" xmlns="http://www.w3.org/2000/svg" x="0px" y="0px"
	 viewBox="0 0 100 25" style="enable-background:new 0 0 100 25;" xml:space="preserve">
<style type="text/css">
	.st0{fill:none;}
</style>
<rect id="wrapper" y="0" class="st0" width="100" height="25"/>
<g id="fm">
	<g>
		<polygon points="89,18.6 89,20.6 89,21.2 89,21.3 90.8,18.6 91.4,18.6 91.4,21.8 90.9,21.8 90.9,19.8 91,19.5 91,19.1 89.2,21.8 
			88.5,21.8 88.5,18.6 		"/>
		<path d="M85.7,21.3l0.1-0.3l0.1-0.3l0.9-2.1h0.6v3.2H87v-2.7l-0.1,0.2l-0.2,0.5l-0.9,2h-0.4l-0.9-2c-0.1-0.2-0.2-0.4-0.2-0.6v2.7
			H84v-3.2h0.5l0.9,2C85.5,20.8,85.6,21.1,85.7,21.3z"/>
		<path d="M82.5,21.8l-0.1-0.5l0,0c-0.1,0.2-0.3,0.3-0.5,0.4s-0.4,0.1-0.6,0.1c-0.3,0-0.6-0.1-0.8-0.2c-0.2-0.2-0.3-0.4-0.3-0.7
			c0-0.6,0.5-1,1.6-1h0.6v-0.2c0-0.2,0-0.4-0.2-0.6c-0.2-0.1-0.3-0.2-0.6-0.2c-0.3,0-0.7,0.1-1,0.3l-0.1-0.4
			c0.2-0.1,0.4-0.2,0.5-0.2c0.2-0.1,0.4-0.1,0.6-0.1c0.3,0,0.6,0.1,0.9,0.3c0.2,0.2,0.3,0.5,0.3,0.8v2.2
			C82.8,21.8,82.5,21.8,82.5,21.8z M81.4,21.5c0.3,0,0.5-0.1,0.7-0.3c0.2-0.2,0.3-0.4,0.3-0.7v-0.3h-0.5c-0.3,0-0.6,0-0.9,0.2
			s-0.4,0.5-0.2,0.8c0,0,0,0.1,0.1,0.1C81,21.4,81.2,21.5,81.4,21.5L81.4,21.5z"/>
		<path d="M78.8,21.8c-0.4,0-0.8-0.1-1.1-0.4c-0.3-0.3-0.4-0.8-0.4-1.2c0-0.5,0.1-0.9,0.4-1.2c0.3-0.3,0.7-0.5,1.2-0.4
			c0.2,0,0.3,0,0.5,0.1c0.1,0,0.3,0.1,0.4,0.1l-0.2,0.4c-0.1,0-0.2-0.1-0.4-0.1c-0.1,0-0.2,0-0.3,0c-0.7,0-1,0.4-1,1.3
			c0,0.3,0.1,0.6,0.3,0.9c0.2,0.2,0.5,0.3,0.7,0.3c0.3,0,0.6-0.1,0.9-0.2v0.4C79.4,21.8,79.1,21.9,78.8,21.8z"/>
		<path d="M74,18.6V20h1.9v-1.4h0.5v3.3h-0.5v-1.5H74v1.5h-0.5v-3.3H74z"/>
		<path d="M72,21.8l-0.1-0.5l0,0c-0.1,0.2-0.3,0.3-0.5,0.4s-0.4,0.1-0.6,0.1c-0.3,0-0.6-0.1-0.8-0.2c-0.2-0.2-0.3-0.4-0.3-0.7
			c0-0.7,0.5-1,1.6-1h0.6v-0.2c0-0.2,0-0.4-0.2-0.6c-0.1-0.1-0.3-0.2-0.5-0.2c-0.3,0-0.7,0.1-0.9,0.3l-0.2-0.4
			c0.2-0.1,0.4-0.2,0.6-0.2c0.2-0.1,0.4-0.1,0.6-0.1c0.3,0,0.6,0.1,0.9,0.3c0.2,0.2,0.3,0.5,0.3,0.8v2.2C72.5,21.8,72,21.8,72,21.8z
			 M70.9,21.5c0.3,0,0.5-0.1,0.8-0.3c0.2-0.2,0.3-0.4,0.3-0.7v-0.3h-0.5c-0.3,0-0.6,0-0.9,0.2c-0.2,0.1-0.3,0.3-0.3,0.5
			s0.1,0.3,0.2,0.4C70.6,21.4,70.7,21.5,70.9,21.5L70.9,21.5z"/>
		<path d="M66.5,18.6V20h1.9v-1.4h0.5v3.3h-0.5v-1.5h-1.9v1.5H66v-3.3H66.5z"/>
		<path d="M62.5,18.6v2v0.5v0.2l1.8-2.7h0.6v3.3h-0.4v-2.4v-0.4l-1.8,2.8H62v-3.3H62.5z"/>
		<path d="M61.1,20.2c0,0.4-0.1,0.8-0.4,1.2c-0.3,0.3-0.8,0.5-1.2,0.5v1.4H59v-1.4c-0.4,0-0.9-0.2-1.2-0.5s-0.5-0.7-0.4-1.1
			c0-0.4,0.1-0.9,0.4-1.2c0.3-0.3,0.8-0.5,1.2-0.5v-1.3h0.5v1.3c0.4,0,0.9,0.2,1.2,0.5C61,19.3,61.2,19.8,61.1,20.2z M57.9,20.2
			c0,0.3,0.1,0.6,0.3,0.9c0.2,0.2,0.5,0.4,0.8,0.4V19c-0.3,0-0.6,0.1-0.8,0.4C58,19.6,57.9,19.9,57.9,20.2z M60.6,20.2
			c0.1-0.6-0.4-1.2-1-1.2h-0.1v2.5c0.3,0,0.6-0.1,0.8-0.4C60.5,20.8,60.6,20.5,60.6,20.2z"/>
		<path d="M53.8,21.8c-0.4,0-0.9-0.1-1.2-0.4s-0.5-0.8-0.4-1.2c0-0.4,0.1-0.9,0.4-1.2c0.3-0.3,0.7-0.5,1.1-0.5c0.4,0,0.7,0.1,1,0.4
			s0.4,0.7,0.4,1v0.3h-2.3c0,0.3,0.1,0.6,0.3,0.9c0.2,0.2,0.5,0.3,0.8,0.3c0.4,0,0.7-0.1,1.1-0.2v0.4c-0.2,0.1-0.3,0.1-0.5,0.2
			C54.2,21.8,54,21.8,53.8,21.8z M53.7,18.9c-0.2,0-0.5,0.1-0.7,0.3c-0.2,0.2-0.3,0.4-0.3,0.7h1.8c0-0.3-0.1-0.5-0.2-0.7
			C54.1,19,53.9,18.9,53.7,18.9L53.7,18.9z"/>
		<path d="M48.9,18.6v2v0.5v0.2l1.8-2.7h0.6v3.3h-0.5v-2.8L49,21.9h-0.6v-3.3H48.9z"/>
		<path d="M45,18.6V20h1.9v-1.4h0.5v3.3h-0.5v-1.5H45v1.5h-0.5v-3.3H45z"/>
		<path d="M42.4,21.8c-0.4,0-0.9-0.1-1.2-0.4s-0.5-0.8-0.4-1.2c0-0.4,0.1-0.9,0.4-1.2c0.3-0.3,0.7-0.5,1.1-0.5c0.4,0,0.7,0.1,1,0.4
			c0.2,0.3,0.4,0.7,0.4,1v0.3h-2.3c0,0.3,0.1,0.6,0.3,0.9c0.2,0.2,0.5,0.3,0.8,0.3c0.4,0,0.7-0.1,1.1-0.2v0.4
			c-0.2,0.1-0.3,0.1-0.5,0.2C42.7,21.8,42.6,21.8,42.4,21.8z M42.2,18.9c-0.2,0-0.5,0.1-0.6,0.3c-0.2,0.2-0.3,0.4-0.3,0.7H43
			c0-0.3-0.1-0.5-0.2-0.7C42.7,19,42.4,18.9,42.2,18.9L42.2,18.9z"/>
		<path d="M39.9,21.8h-0.5V19h-1c0,0.6-0.1,1.1-0.2,1.7c-0.1,0.3-0.2,0.6-0.4,0.9c-0.1,0.2-0.4,0.3-0.6,0.3c-0.1,0-0.2,0-0.3,0v-0.4
			H37c0.2,0,0.4-0.2,0.6-0.7c0.2-0.7,0.3-1.4,0.3-2.2h2L39.9,21.8z"/>
		<path d="M36.5,19.4c0,0.2-0.1,0.4-0.2,0.5c-0.2,0.1-0.3,0.2-0.5,0.2l0,0c0.2,0,0.4,0.1,0.6,0.2c0.1,0.1,0.2,0.3,0.2,0.5
			c0,0.3-0.1,0.5-0.4,0.7c-0.3,0.2-0.6,0.3-1,0.3h-1.5v-3.2h1.5C36.1,18.6,36.5,18.8,36.5,19.4z M36,19.4c0-0.1-0.1-0.3-0.2-0.3
			C35.6,19,35.4,19,35.2,19h-1v0.9h0.9c0.2,0,0.5,0,0.7-0.1C35.9,19.8,36,19.6,36,19.4L36,19.4z M36.1,20.8c0-0.2-0.1-0.3-0.2-0.4
			c-0.2-0.1-0.4-0.1-0.7-0.1h-0.9v1.1h0.9C35.8,21.4,36.1,21.2,36.1,20.8L36.1,20.8z"/>
		<path d="M32.4,21.8l-0.1-0.5l0,0c-0.1,0.2-0.3,0.3-0.5,0.4s-0.4,0.1-0.6,0.1c-0.3,0-0.6-0.1-0.8-0.2c-0.2-0.2-0.3-0.4-0.3-0.7
			c0-0.7,0.5-1,1.6-1h0.6v-0.2c0-0.2,0-0.4-0.2-0.6c-0.1-0.2-0.4-0.3-0.6-0.3c-0.3,0-0.7,0.1-1,0.3l-0.1-0.4
			c0.2-0.1,0.4-0.2,0.5-0.2c0.2-0.1,0.4-0.1,0.6-0.1c0.3,0,0.7,0.1,0.9,0.3c0.2,0.2,0.3,0.5,0.3,0.8v2.2h-0.3V21.8z M31.2,21.5
			c0.3,0,0.5-0.1,0.8-0.3c0.2-0.2,0.3-0.4,0.3-0.7v-0.3h-0.5c-0.3,0-0.6,0-0.9,0.2s-0.4,0.5-0.2,0.8c0,0,0,0.1,0.1,0.1
			C30.9,21.4,31.1,21.5,31.2,21.5L31.2,21.5z"/>
		<path d="M28,21.8c-0.2,0-0.4,0-0.6-0.1s-0.3-0.2-0.5-0.4l0,0c0,0.2,0,0.4,0,0.5v1.3h-0.5v-4.6h0.4L27,19l0,0
			c0.1-0.2,0.3-0.3,0.5-0.4s0.4-0.1,0.6-0.1c0.4,0,0.7,0.1,1,0.4c0.3,0.4,0.4,0.8,0.4,1.2c0,0.4-0.1,0.9-0.4,1.2
			C28.8,21.7,28.4,21.9,28,21.8z M28,18.9c-0.3,0-0.6,0.1-0.8,0.3C27,19.5,27,19.8,27,20.1v0.1c0,0.3,0,0.7,0.2,1
			c0.2,0.2,0.5,0.3,0.8,0.3s0.5-0.1,0.7-0.3c0.2-0.3,0.3-0.6,0.3-0.9s-0.1-0.6-0.3-0.9C28.5,19.1,28.2,18.9,28,18.9L28,18.9z"/>
		<path d="M23.1,21.8h-0.5v-3.3h2.8v3.3h-0.5V19h-1.8V21.8z"/>
		<path d="M18.9,18.6h0.5l0.7,1.8c0.1,0.3,0.2,0.6,0.3,0.9l0,0c0-0.1,0.1-0.3,0.2-0.5s0.4-1,0.8-2.2H22l-1.4,3.7
			c-0.1,0.3-0.3,0.6-0.5,0.8c-0.2,0.2-0.5,0.2-0.7,0.2s-0.3,0-0.5,0v-0.4c0.1,0,0.3,0,0.4,0c0.3,0,0.7-0.2,0.8-0.6l0.2-0.5
			L18.9,18.6z"/>
	</g>
</g>
<g id="uhgalter">
	<g>
		<path d="M35.2,2.8l-1,9.5c-0.1,1.1-0.2,2.1-0.6,3.1c-0.2,0.6-0.5,1-1.1,1.3c-0.7,0.3-1.6,0.4-2.5,0.4h-2.2l0-1.8H28
			c0.3,0,0.6,0,0.9-0.1c0.1-0.1,0.2-0.2,0.1-0.3l-0.2-1.2L26.9,2.9h3.2l1.2,8.9l0.5-8.9L35.2,2.8L35.2,2.8z"/>
		<path d="M43.5,2.8l-1.3,6.3l2,7.9h-3.4c-0.5-1.7-0.8-3.5-1.1-5.2c-0.1,0.9-0.2,1.9-0.4,2.9L38.9,17h-3.7l1.3-7.9l-1.4-6.3h3.6
			c0.1,0.4,0.2,1,0.4,2c0.1,0.7,0.2,1.3,0.3,1.9l0.9-3.9C40.3,2.8,43.5,2.8,43.5,2.8z"/>
		<path d="M51.1,5.7h-2.7l0,11.4h-3.7l0-14.3h6.4L51.1,5.7z"/>
		<path d="M58.5,2.8L60.6,17h-3.8l-0.2-2.6h-1.3L55.1,17h-3.9l1.9-14.2C53.1,2.8,58.5,2.8,58.5,2.8z M56.6,12
			c-0.2-1.6-0.3-3.6-0.6-6c-0.4,2.7-0.6,4.7-0.7,6H56.6z"/>
		<path d="M70.3,17.1h-3.7l0-11.4h-1.1l0,8.1c0,0.8-0.1,1.6-0.4,2.3c-0.2,0.5-0.7,0.8-1.2,0.9c-0.9,0.1-1.8,0.2-2.7,0.2h-0.6l0-2.4
			c0.3,0,0.7,0,1-0.2c0.2-0.1,0.2-0.5,0.3-1.1L61.7,2.8h8.5L70.3,17.1z"/>
		<path d="M79.2,2.8l0,2.9H77l0,11.4h-3.7l0-11.4h-2.2l0-2.8L79.2,2.8L79.2,2.8z"/>
		<path d="M80,2.8h6.2l0,2.9h-2.5l0,2.7H86l0,2.8h-2.3l0,3.1h2.7l0,2.9h-6.4L80,2.8z"/>
		<path d="M87.5,2.8h3.7c0.8,0,1.6,0.1,2.4,0.3c0.4,0.1,0.9,0.4,1.2,0.7c0.3,0.3,0.5,0.7,0.6,1.1c0.1,0.7,0.1,1.3,0.2,2l0,1.2
			c0,0.7-0.1,1.4-0.2,2c-0.2,0.5-0.6,0.8-1,1c-0.6,0.2-1.2,0.3-1.9,0.3h-1l0,5.7h-3.7L87.5,2.8z M91.3,5.3L91.3,9h0.3
			c0.3,0,0.5-0.1,0.7-0.3c0.1-0.3,0.2-0.7,0.2-1l-0.2-1.2c0-0.5,0-0.8-0.3-1C92,5.4,91.7,5.3,91.3,5.3L91.3,5.3z"/>
	</g>
</g>
<path id="b" d="M27.7,13.8c0,0.8-0.1,1.6-0.4,2.3c-0.2,0.5-0.7,0.8-1.2,0.9c-0.9,0.1-1.8,0.2-2.7,0.2h-4.3l0-14.3h7.2l0,2.5h-3.6
	l0,2.4h0.6c0.9,0,1.7,0,2.6,0.2c0.5,0.1,1,0.4,1.3,0.9c0.3,0.7,0.5,1.4,0.5,2.2L27.7,13.8z M23.9,13.3l0-2.1c0-0.6-0.1-1-0.2-1.1
	c-0.1-0.1-0.4-0.2-1-0.2l0,4.7c0.3,0,0.7,0,1-0.2C23.9,14.4,23.9,14,23.9,13.3z"/>
<path id="r" d="M17.2,21.8h-4.9l0-8.5c-0.4-0.1-0.9,0.1-1.2,0.3c-0.2,0.4-0.3,0.9-0.3,1.4l0,6.9H6.2l0-5.7c0-0.8,0-1.5,0.1-2.2
	c0.1-0.5,0.4-0.9,0.8-1.2c0.5-0.4,1.2-0.7,1.9-0.8c-1.1-0.1-1.9-0.4-2.2-1c-0.4-1-0.6-2-0.5-3c0-1,0.1-2.1,0.5-3
	C7,4.4,7.4,3.8,7.9,3.5C8.6,3.2,9.4,3,10,2.9c0.8-0.1,2-0.1,3.6-0.1h3.5L17.2,21.8z M12.2,10.3l0-4.2H12c-0.4,0-0.7,0.1-0.9,0.3
	c-0.2,0.3-0.4,0.7-0.3,1.2l0,1c0,0.4,0.1,0.9,0.2,1.3C11.2,10.2,11.6,10.3,12.2,10.3z"/>
</svg>
